<svg t="1767772444925" class="icon" viewBox="0 0 1024 1024" version="1.1" xmlns="http://www.w3.org/2000/svg" p-id="1747"><path d="M522.666667 128a64 64 0 0 1 42.709333 111.658667L565.333333 298.666667H725.333333a128 128 0 0 1 127.786667 120.490666L853.333333 426.666667v341.333333a128 128 0 0 1-128 128H298.666667a128 128 0 0 1-128-128v-341.333333a128 128 0 0 1 128-128h181.333333V239.701333a63.872 63.872 0 0 1-21.034667-41.557333L458.666667 192a64 64 0 0 1 64-64zM725.333333 384H298.666667a42.666667 42.666667 0 0 0-42.666667 42.666667v341.333333a42.666667 42.666667 0 0 0 42.666667 42.666667h426.666666a42.666667 42.666667 0 0 0 42.666667-42.666667v-341.333333a42.666667 42.666667 0 0 0-42.666667-42.666667z m-149.333333 256a42.666667 42.666667 0 0 1 0 85.333333h-128a42.666667 42.666667 0 0 1 0-85.333333h128z m-469.333333-170.666667a42.666667 42.666667 0 0 1 42.368 37.674667L149.333333 512v170.666667a42.666667 42.666667 0 0 1-85.034666 4.992L64 682.666667v-170.666667a42.666667 42.666667 0 0 1 42.666667-42.666667z m810.666666 0a42.666667 42.666667 0 0 1 42.368 37.674667L960 512v170.666667a42.666667 42.666667 0 0 1-85.034667 4.992L874.666667 682.666667v-170.666667a42.666667 42.666667 0 0 1 42.666666-42.666667zM394.666667 469.333333a64 64 0 1 1 0 128 64 64 0 0 1 0-128z m256 0a64 64 0 1 1 0 128 64 64 0 0 1 0-128z" fill="currentColor" p-id="1748"></path></svg>
