<svg t="1764571898342" class="icon" viewBox="0 0 1024 1024" version="1.1" xmlns="http://www.w3.org/2000/svg"
     p-id="4919">
    <path d="M692.8 463.872a40.32 40.32 0 0 0-69.856 0l-149.088 258.144a38.304 38.304 0 0 1-66.304 0l-72.64-125.888a40.32 40.32 0 0 0-69.824 0l-105.824 189.184a19.52 19.52 0 0 0 17.024 28.992h671.36c18.432 0 30.08-19.808 21.12-35.872l-175.968-314.56zM847.808 113.6H176.32a144.48 144.48 0 0 0-144.288 144.288v508.256a144.32 144.32 0 0 0 135.84 143.84c2.784 0.224 5.664 0.448 8.448 0.448h671.36c28.288 0 54.624-8.256 76.896-22.368a143.84 143.84 0 0 0 67.36-121.92V257.888c0.256-79.488-64.576-144.288-144.128-144.288z m86.656 652.64a86.08 86.08 0 0 1-22.496 57.952 89.312 89.312 0 0 1-22.944 18.016 84.608 84.608 0 0 1-41.12 10.592H176.32a86.848 86.848 0 0 1-86.56-86.528V257.888A86.656 86.656 0 0 1 176.32 171.328h671.488a86.656 86.656 0 0 1 86.528 86.56v508.384h0.128zM156.8 321.6a86.56 86.56 0 1 0 173.12 0 86.56 86.56 0 0 0-173.12 0z"
          fill="currentColor" p-id="4920"></path>
</svg>
